<svg xmlns="http://www.w3.org/2000/svg" width="48" height="46" viewBox="0 0 48 46" fill="none">
  <path fill="#863bff" d="M25.946 44.938c-.664.845-2.021.375-2.021-.698V33.937a2.26 2.26 0 0 0-2.262-2.262H10.287c-.92 0-1.456-1.04-.92-1.788l7.48-10.471c1.07-1.497 0-3.578-1.842-3.578H1.237c-.92 0-1.456-1.04-.92-1.788L10.013.474c.214-.297.556-.474.92-.474h28.894c.92 0 1.456 1.04.92 1.788l-7.48 10.471c-1.07 1.498 0 3.579 1.842 3.579h11.377c.943 0 1.473 1.088.89 1.83L25.947 44.94z"/>
  <path fill="#47bfff" fill-opacity="0.65" d="M34.5 15.8h11.9c.95 0 1.48 1.09.9 1.83L25.95 44.94c-.67.84-2.02.37-2.02-.7V33.94c0-1.25-1.02-2.27-2.27-2.27h-8.4L34.5 15.8z"/>
  <path fill="#ede6ff" fill-opacity="0.8" d="M10.02.47A1.13 1.13 0 0 1 10.93 0h28.9c.92 0 1.45 1.04.92 1.79l-7.48 10.47a2.25 2.25 0 0 0-.2 2.25H15.02c1.84 0 2.91 2.08 1.84 3.58L9.37 28.56.32 14.05 10.02.47z"/>
</svg>
